# xmcd
#
# Track frame offsets: 
#        150
#        17072
#        33988
#        51111
#        75293
#        88065
#        99460
#        115073
#        134497
#        148850
#        170512
#        202837
#        223431
#        240995
#
# Disc length: 3446 seconds
#
# Revision: 1
# Processed by: cddbd v1.5.2PL0 Copyright (c) Steve Scherf et al.
# Submitted via: ExactAudioCopy v1.3
#
DISCID=bb0d740e
DTITLE=Various Artist - Soulbag Sampler, Sep 2007
DYEAR=2007
DGENRE=Blues
TTITLE0=Sharon Jones - 100 days 100 nights
TTITLE1=Ruthie Foster - Up above my head (I hear music in the air)
TTITLE2=James Blood Ulmer - Katrina
TTITLE3=Travis 'Moonchild' Haddix - Mean ole yesterday
TTITLE4=Luther Ingram - I'll just call you honey
TTITLE5=Barbara and The Browns - If it's good to you (It's good for you)
TTITLE6=Roy Roberts - I don't know where death is
TTITLE7=Foree 'Guitar' Wells - Ain't no fun when the rabbit's got the 
TTITLE7=gun
TTITLE8=Bill Brandon - I am free of your love
TTITLE9=Bulldog Gravy - Stunned and amazed
TTITLE10=Terry 'Big T' Williams and Wesley 'Junebug' Jefferson - The wre
TTITLE10=ck
TTITLE11=Spoonful - You can call me
TTITLE12=Lenny Lafargue - Le blues frappé à ma porte
TTITLE13=Papa Grows Funk - Walkin' in our own shoes
EXTD=Soul Bag N°188, septembre 2007\r\nThe French Blues and Soul Magazin
EXTD=e
EXTT0=
EXTT1=
EXTT2=
EXTT3=
EXTT4=
EXTT5=
EXTT6=
EXTT7=
EXTT8=
EXTT9=
EXTT10=
EXTT11=
EXTT12=
EXTT13=
PLAYORDER=
